<svg width="50" height="50" viewBox="0 0 50 50" fill="none" xmlns="http://www.w3.org/2000/svg">
<path d="M14.5646 37.7232C14.4158 37.8906 14.2298 37.8627 14.0066 37.6395C13.7647 37.4349 13.7275 37.2582 13.8949 37.1094C14.0438 36.9419 14.2298 36.9698 14.453 37.1931C14.6762 37.3977 14.7134 37.5744 14.5646 37.7232ZM13.3927 36.0212C13.5601 36.2444 13.5601 36.4211 13.3927 36.5513C13.2439 36.6629 13.0858 36.5978 12.9184 36.356C12.751 36.1142 12.751 35.9468 12.9184 35.8538C13.0858 35.7236 13.2439 35.7794 13.3927 36.0212ZM11.6907 34.3471C11.5977 34.4773 11.4768 34.4959 11.328 34.4029C11.142 34.3099 11.0769 34.1983 11.1327 34.0681C11.1885 33.9751 11.3094 33.9565 11.4954 34.0123C11.6814 34.1053 11.7465 34.2169 11.6907 34.3471ZM12.5557 35.2957C12.4441 35.4259 12.2952 35.398 12.1092 35.212C11.9418 35.0074 11.9232 34.8586 12.0534 34.7656C12.165 34.654 12.3138 34.6819 12.4999 34.8493C12.6673 35.0539 12.6859 35.2027 12.5557 35.2957ZM16.155 38.4207C16.0806 38.644 15.9039 38.6998 15.6249 38.5882C15.3086 38.5137 15.1877 38.3742 15.2621 38.1696C15.3365 37.965 15.5133 37.8999 15.7923 37.9743C16.0899 38.0673 16.2108 38.2161 16.155 38.4207ZM17.9128 38.5602C17.9128 38.7649 17.764 38.8672 17.4664 38.8672C17.1502 38.9044 16.992 38.8021 16.992 38.5602C16.992 38.3556 17.1409 38.2533 17.4385 38.2533C17.7547 38.2161 17.9128 38.3184 17.9128 38.5602ZM19.5311 38.2812C19.5683 38.4672 19.4381 38.5975 19.1405 38.6719C18.8429 38.7463 18.6755 38.6719 18.6383 38.4486C18.6011 38.2254 18.7313 38.0859 19.0289 38.0301C19.3265 37.9929 19.4939 38.0766 19.5311 38.2812ZM46.4284 11.6071V38.3928C46.4284 40.6064 45.6425 42.4991 44.0707 44.0709C42.4989 45.6427 40.6063 46.4286 38.3927 46.4286H32.1427C31.8451 46.4286 31.6172 46.4193 31.4591 46.4007C31.301 46.382 31.1197 46.3355 30.915 46.2611C30.7104 46.1867 30.5616 46.0519 30.4686 45.8566C30.3756 45.6613 30.3291 45.4055 30.3291 45.0893V38.4207C30.3291 36.6164 29.8455 35.2957 28.8782 34.4587C29.9385 34.3471 30.8918 34.1797 31.7381 33.9565C32.5845 33.7332 33.4588 33.3705 34.3609 32.8683C35.2631 32.3661 36.0164 31.7476 36.621 31.0128C37.2255 30.2781 37.7184 29.3015 38.0997 28.0831C38.4811 26.8648 38.6717 25.465 38.6717 23.8839C38.6717 21.6332 37.937 19.7172 36.4675 18.1361C37.1557 16.4434 37.0813 14.5461 36.2443 12.4442C35.7234 12.2768 34.9701 12.3791 33.9842 12.7511C32.9984 13.1231 32.1427 13.5323 31.4173 13.9788L30.357 14.6484C28.6271 14.1648 26.8414 13.923 24.9999 13.923C23.1583 13.923 21.3726 14.1648 19.6427 14.6484C19.3451 14.4438 18.9498 14.1927 18.4569 13.8951C17.964 13.5975 17.1874 13.2394 16.1271 12.8209C15.0668 12.4023 14.267 12.2768 13.7275 12.4442C12.9091 14.5461 12.844 16.4434 13.5322 18.1361C12.0627 19.7172 11.328 21.6332 11.328 23.8839C11.328 25.465 11.5186 26.8601 11.9 28.0692C12.2813 29.2783 12.7696 30.2548 13.3648 30.9989C13.9601 31.7429 14.7088 32.3661 15.6109 32.8683C16.5131 33.3705 17.3873 33.7332 18.2337 33.9565C19.08 34.1797 20.0333 34.3471 21.0936 34.4587C20.3496 35.1283 19.8938 36.0863 19.7264 37.3326C19.3358 37.5186 18.9173 37.6581 18.4708 37.7511C18.0244 37.8441 17.4943 37.8906 16.8804 37.8906C16.2666 37.8906 15.6574 37.6906 15.0529 37.2907C14.4483 36.8908 13.9322 36.3095 13.5043 35.5469C13.1509 34.9516 12.6998 34.468 12.1511 34.096C11.6024 33.7239 11.142 33.5007 10.7699 33.4263L10.2119 33.3426C9.82129 33.3426 9.55157 33.3845 9.40276 33.4682C9.25395 33.5519 9.20745 33.6588 9.26325 33.789C9.31906 33.9193 9.40276 34.0495 9.51437 34.1797C9.62598 34.3099 9.74688 34.4215 9.87709 34.5145L10.0724 34.654C10.4816 34.84 10.8862 35.1934 11.2861 35.7143C11.6861 36.2351 11.979 36.7094 12.165 37.1373L12.4441 37.779C12.6859 38.4858 13.0951 39.0578 13.6717 39.495C14.2484 39.9321 14.8715 40.2111 15.5412 40.332C16.2108 40.4529 16.8572 40.518 17.4803 40.5273C18.1035 40.5366 18.6197 40.5041 19.0289 40.4297L19.6706 40.3181C19.6706 41.0249 19.6753 41.9829 19.6846 43.1919C19.6939 44.401 19.6985 45.0335 19.6985 45.0893C19.6985 45.4985 19.5962 45.8101 19.3916 46.024C19.187 46.2379 18.9824 46.3588 18.7778 46.3867C18.5731 46.4146 18.2662 46.4286 17.857 46.4286H11.607C9.39346 46.4286 7.50079 45.6427 5.92899 44.0709C4.35719 42.4991 3.57129 40.6064 3.57129 38.3928V11.6071C3.57129 9.39358 4.35719 7.50091 5.92899 5.92911C7.50079 4.35731 9.39346 3.57141 11.607 3.57141H38.3927C40.6063 3.57141 42.4989 4.35731 44.0707 5.92911C45.6425 7.50091 46.4284 9.39358 46.4284 11.6071Z" fill="#0097EC"/>
</svg>
