<svg width="29" height="36" viewBox="0 0 29 36" fill="none" xmlns="http://www.w3.org/2000/svg">
<path d="M13.2949 18.0979C12.2694 18.8808 10.8339 17.8944 11.2125 16.661L11.2651 16.4897C11.4314 15.9481 11.2509 15.3599 10.8095 15.0049L10.6014 14.8375C9.56615 14.0048 10.1889 12.3333 11.5175 12.3333C12.1037 12.3333 12.6312 11.9549 12.8105 11.3968C13.2119 10.1482 14.9786 10.1482 15.3799 11.3968C15.5593 11.9549 16.0854 12.3333 16.6716 12.3333C17.995 12.3333 18.6061 14.0014 17.5705 14.8253L17.338 15.0103C16.8964 15.3617 16.7149 15.9477 16.8805 16.4872L16.94 16.6808C17.3144 17.9003 15.9001 18.8798 14.8902 18.1004C14.4213 17.7386 13.7656 17.7385 13.2949 18.0979ZM8.78872 35.245C6.1986 36.1084 3.52381 34.1805 3.52381 31.4503V24.9303C3.52381 23.9385 3.13437 22.9968 2.55715 22.1903C1.89437 21.2642 1.35032 20.2544 0.925 19.1607C0.308333 17.575 0 15.8865 0 14.0952C0 10.1603 1.36548 6.82738 4.09643 4.09643C6.82738 1.36548 10.1603 0 14.0952 0C18.0302 0 21.3631 1.36548 24.094 4.09643C26.825 6.82738 28.1905 10.1603 28.1905 14.0952C28.1905 15.8865 27.8821 17.575 27.2655 19.1607C26.8402 20.2544 26.2961 21.2642 25.6333 22.1903C25.0561 22.9968 24.6667 23.9385 24.6667 24.9303V31.4503C24.6667 34.1805 21.9919 36.1084 19.4018 35.245L15.3601 33.8978C14.5391 33.6241 13.6514 33.6241 12.8303 33.8978L8.78872 35.245ZM14.0952 24.6667C17.0317 24.6667 19.5278 23.6389 21.5833 21.5833C23.6389 19.5278 24.6667 17.0317 24.6667 14.0952C24.6667 11.1587 23.6389 8.6627 21.5833 6.60714C19.5278 4.55159 17.0317 3.52381 14.0952 3.52381C11.1587 3.52381 8.6627 4.55159 6.60714 6.60714C4.55159 8.6627 3.52381 11.1587 3.52381 14.0952C3.52381 17.0317 4.55159 19.5278 6.60714 21.5833C8.6627 23.6389 11.1587 24.6667 14.0952 24.6667ZM7.04762 29.4215C7.04762 30.6057 8.16416 31.4722 9.31133 31.1783L13.1023 30.2068C13.7537 30.0399 14.4367 30.0399 15.0882 30.2068L18.8791 31.1783C20.0263 31.4722 21.1429 30.6057 21.1429 29.4215C21.1429 28.029 19.6112 27.1225 18.2839 27.5437C18.1298 27.5926 17.9742 27.6394 17.8173 27.6839C16.628 28.0216 15.3873 28.1905 14.0952 28.1905C12.8032 28.1905 11.5625 28.0216 10.3732 27.6839C10.2163 27.6394 10.0607 27.5926 9.90656 27.5437C8.57931 27.1225 7.04762 28.029 7.04762 29.4215Z" fill="#0097EC"/>
</svg>
