<svg width="118" height="18" viewBox="0 0 118 18" fill="none" xmlns="http://www.w3.org/2000/svg">
<path d="M2.08665 4.18182H4.80966V14.4858C4.80966 15.2443 4.66051 15.858 4.36222 16.3267C4.06392 16.7955 3.63565 17.1385 3.07741 17.3558C2.52344 17.5732 1.8608 17.6818 1.08949 17.6818C0.995739 17.6818 0.90625 17.6797 0.821023 17.6754C0.731534 17.6754 0.637784 17.6733 0.539773 17.669V15.5405C0.612216 15.5447 0.676136 15.5469 0.731534 15.5469C0.78267 15.5511 0.838068 15.5533 0.897727 15.5533C1.33665 15.5533 1.64347 15.4595 1.81818 15.272C1.99716 15.0888 2.08665 14.8118 2.08665 14.4411V4.18182ZM3.44176 2.91619C3.04119 2.91619 2.69602 2.78196 2.40625 2.51349C2.11648 2.24077 1.97159 1.91477 1.97159 1.53551C1.97159 1.16051 2.11648 0.838778 2.40625 0.570312C2.69602 0.297585 3.04119 0.161221 3.44176 0.161221C3.85085 0.161221 4.19815 0.297585 4.48366 0.570312C4.77344 0.838778 4.91832 1.16051 4.91832 1.53551C4.91832 1.91477 4.77344 2.24077 4.48366 2.51349C4.19815 2.78196 3.85085 2.91619 3.44176 2.91619ZM11.427 14.1918C10.4341 14.1918 9.57546 13.9808 8.85103 13.5589C8.13086 13.1328 7.57475 12.5405 7.18271 11.782C6.79066 11.0192 6.59464 10.1349 6.59464 9.12926C6.59464 8.11506 6.79066 7.22869 7.18271 6.47017C7.57475 5.70739 8.13086 5.11506 8.85103 4.69318C9.57546 4.26705 10.4341 4.05398 11.427 4.05398C12.4199 4.05398 13.2765 4.26705 13.9966 4.69318C14.7211 5.11506 15.2793 5.70739 15.6713 6.47017C16.0634 7.22869 16.2594 8.11506 16.2594 9.12926C16.2594 10.1349 16.0634 11.0192 15.6713 11.782C15.2793 12.5405 14.7211 13.1328 13.9966 13.5589C13.2765 13.9808 12.4199 14.1918 11.427 14.1918ZM11.4398 12.0824C11.8915 12.0824 12.2686 11.9545 12.5712 11.6989C12.8738 11.4389 13.1017 11.0852 13.2551 10.6378C13.4128 10.1903 13.4917 9.68111 13.4917 9.11009C13.4917 8.53906 13.4128 8.02983 13.2551 7.58239C13.1017 7.13494 12.8738 6.78125 12.5712 6.52131C12.2686 6.26136 11.8915 6.13139 11.4398 6.13139C10.9838 6.13139 10.6003 6.26136 10.2892 6.52131C9.98242 6.78125 9.75018 7.13494 9.59251 7.58239C9.4391 8.02983 9.36239 8.53906 9.36239 9.11009C9.36239 9.68111 9.4391 10.1903 9.59251 10.6378C9.75018 11.0852 9.98242 11.4389 10.2892 11.6989C10.6003 11.9545 10.9838 12.0824 11.4398 12.0824ZM20.753 8.32386V14H18.03V0.909091H20.6763V5.91406H20.7914C21.013 5.33452 21.3709 4.88068 21.8652 4.55256C22.3596 4.22017 22.9796 4.05398 23.7253 4.05398C24.4071 4.05398 25.0016 4.20312 25.5087 4.50142C26.0201 4.79545 26.4164 5.21946 26.6976 5.77344C26.9831 6.32315 27.1238 6.98153 27.1195 7.74858V14H24.3965V8.23438C24.4007 7.62926 24.2473 7.15838 23.9363 6.82173C23.6294 6.48509 23.199 6.31676 22.6451 6.31676C22.2743 6.31676 21.9462 6.3956 21.6607 6.55327C21.3794 6.71094 21.1578 6.94105 20.9959 7.24361C20.8382 7.5419 20.7573 7.90199 20.753 8.32386ZM31.9854 8.32386V14H29.2624V4.18182H31.8576V5.91406H31.9727C32.19 5.34304 32.5543 4.89133 33.0657 4.55895C33.5771 4.2223 34.1971 4.05398 34.9258 4.05398C35.6076 4.05398 36.2021 4.20312 36.7092 4.50142C37.2163 4.79972 37.6104 5.22585 37.8917 5.77983C38.1729 6.32955 38.3136 6.9858 38.3136 7.74858V14H35.5906V8.23438C35.5948 7.63352 35.4414 7.16477 35.1303 6.82812C34.8192 6.48722 34.391 6.31676 33.8455 6.31676C33.479 6.31676 33.1552 6.3956 32.8739 6.55327C32.5969 6.71094 32.3796 6.94105 32.2219 7.24361C32.0685 7.5419 31.9897 7.90199 31.9854 8.32386ZM43.2594 14.1854C42.633 14.1854 42.0748 14.0767 41.5847 13.8594C41.0946 13.6378 40.7069 13.3118 40.4213 12.8814C40.1401 12.4467 39.9995 11.9055 39.9995 11.2578C39.9995 10.7124 40.0996 10.2543 40.2999 9.88352C40.5002 9.51278 40.7729 9.21449 41.1181 8.98864C41.4632 8.76278 41.8553 8.59233 42.2942 8.47727C42.7374 8.36222 43.2019 8.28125 43.6877 8.23438C44.2587 8.17472 44.7189 8.11932 45.0684 8.06818C45.4178 8.01278 45.6713 7.93182 45.829 7.82528C45.9867 7.71875 46.0655 7.56108 46.0655 7.35227V7.31392C46.0655 6.90909 45.9377 6.59588 45.682 6.37429C45.4306 6.1527 45.0726 6.0419 44.6081 6.0419C44.1181 6.0419 43.7282 6.15057 43.4384 6.3679C43.1486 6.58097 42.9569 6.84943 42.8631 7.1733L40.3446 6.96875C40.4725 6.37216 40.7239 5.85653 41.0989 5.42188C41.4739 4.98295 41.9576 4.64631 42.5499 4.41193C43.1465 4.1733 43.8368 4.05398 44.6209 4.05398C45.1664 4.05398 45.6884 4.1179 46.187 4.24574C46.6898 4.37358 47.1351 4.57173 47.5229 4.8402C47.915 5.10866 48.2239 5.45384 48.4498 5.87571C48.6756 6.29332 48.7885 6.79403 48.7885 7.37784V14H46.2061V12.6385H46.1294C45.9718 12.9453 45.7608 13.2159 45.4966 13.4503C45.2324 13.6804 44.915 13.8615 44.5442 13.9936C44.1735 14.1214 43.7452 14.1854 43.2594 14.1854ZM44.0392 12.3061C44.4398 12.3061 44.7935 12.2273 45.1003 12.0696C45.4071 11.9077 45.6479 11.6903 45.8226 11.4176C45.9973 11.1449 46.0847 10.8359 46.0847 10.4908V9.44886C45.9995 9.50426 45.8823 9.5554 45.7331 9.60227C45.5882 9.64489 45.4242 9.68537 45.2409 9.72372C45.0577 9.75781 44.8745 9.78977 44.6912 9.8196C44.508 9.84517 44.3418 9.86861 44.1926 9.88991C43.873 9.93679 43.5939 10.0114 43.3553 10.1136C43.1167 10.2159 42.9313 10.3544 42.7992 10.5291C42.6671 10.6996 42.601 10.9126 42.601 11.1683C42.601 11.5391 42.7353 11.8224 43.0037 12.0185C43.2765 12.2102 43.6216 12.3061 44.0392 12.3061ZM56.1234 4.18182V6.22727H50.2108V4.18182H56.1234ZM51.5531 1.82955H54.2761V10.983C54.2761 11.2344 54.3145 11.4304 54.3912 11.571C54.4679 11.7074 54.5744 11.8033 54.7108 11.8587C54.8514 11.9141 55.0133 11.9418 55.1966 11.9418C55.3244 11.9418 55.4522 11.9311 55.5801 11.9098C55.7079 11.8842 55.8059 11.8651 55.8741 11.8523L56.3024 13.8786C56.166 13.9212 55.9743 13.9702 55.7271 14.0256C55.4799 14.0852 55.1795 14.1214 54.8258 14.1342C54.1696 14.1598 53.5943 14.0724 53.1 13.8722C52.6099 13.6719 52.2285 13.3608 51.9558 12.9389C51.6831 12.517 51.5488 11.9844 51.5531 11.3409V1.82955ZM71.4132 14V0.909091H74.1362V5.83097H74.2193C74.3386 5.56676 74.5112 5.2983 74.737 5.02557C74.9672 4.74858 75.2654 4.51847 75.6319 4.33523C76.0027 4.14773 76.4629 4.05398 77.0126 4.05398C77.7285 4.05398 78.389 4.24148 78.9941 4.61648C79.5993 4.98722 80.0829 5.54759 80.4451 6.29759C80.8074 7.04332 80.9885 7.97869 80.9885 9.10369C80.9885 10.1989 80.8116 11.1236 80.4579 11.8778C80.1085 12.6278 79.6312 13.1967 79.0261 13.5845C78.4252 13.968 77.752 14.1598 77.0062 14.1598C76.4778 14.1598 76.0282 14.0724 75.6575 13.8977C75.291 13.723 74.9906 13.5036 74.7562 13.2393C74.5218 12.9709 74.3429 12.7003 74.2193 12.4276H74.0978V14H71.4132ZM74.0787 9.09091C74.0787 9.67472 74.1596 10.1839 74.3216 10.6186C74.4835 11.0533 74.7179 11.392 75.0247 11.6349C75.3315 11.8736 75.7044 11.9929 76.1433 11.9929C76.5865 11.9929 76.9615 11.8714 77.2683 11.6286C77.5751 11.3814 77.8074 11.0405 77.965 10.6058C78.127 10.1669 78.2079 9.66193 78.2079 9.09091C78.2079 8.52415 78.1291 8.02557 77.9714 7.59517C77.8137 7.16477 77.5815 6.82812 77.2747 6.58523C76.9679 6.34233 76.5907 6.22088 76.1433 6.22088C75.7001 6.22088 75.3251 6.33807 75.0183 6.57244C74.7157 6.80682 74.4835 7.1392 74.3216 7.5696C74.1596 8 74.0787 8.5071 74.0787 9.09091ZM86.4233 14.1598C85.6776 14.1598 85.0021 13.968 84.397 13.5845C83.7962 13.1967 83.3189 12.6278 82.9652 11.8778C82.6158 11.1236 82.4411 10.1989 82.4411 9.10369C82.4411 7.97869 82.6222 7.04332 82.9844 6.29759C83.3466 5.54759 83.8281 4.98722 84.429 4.61648C85.0341 4.24148 85.6967 4.05398 86.4169 4.05398C86.9666 4.05398 87.4247 4.14773 87.7912 4.33523C88.1619 4.51847 88.4602 4.74858 88.6861 5.02557C88.9162 5.2983 89.0909 5.56676 89.2102 5.83097H89.2933V0.909091H92.0099V14H89.3253V12.4276H89.2102C89.0824 12.7003 88.9013 12.9709 88.6669 13.2393C88.4368 13.5036 88.1364 13.723 87.7656 13.8977C87.3991 14.0724 86.9517 14.1598 86.4233 14.1598ZM87.2862 11.9929C87.7251 11.9929 88.0959 11.8736 88.3984 11.6349C88.7053 11.392 88.9396 11.0533 89.1016 10.6186C89.2678 10.1839 89.3509 9.67472 89.3509 9.09091C89.3509 8.5071 89.2699 8 89.108 7.5696C88.946 7.1392 88.7116 6.80682 88.4048 6.57244C88.098 6.33807 87.7251 6.22088 87.2862 6.22088C86.8388 6.22088 86.4616 6.34233 86.1548 6.58523C85.848 6.82812 85.6158 7.16477 85.4581 7.59517C85.3004 8.02557 85.2216 8.52415 85.2216 9.09091C85.2216 9.66193 85.3004 10.1669 85.4581 10.6058C85.62 11.0405 85.8523 11.3814 86.1548 11.6286C86.4616 11.8714 86.8388 11.9929 87.2862 11.9929ZM97.0485 14.1854C96.4221 14.1854 95.8638 14.0767 95.3738 13.8594C94.8837 13.6378 94.4959 13.3118 94.2104 12.8814C93.9292 12.4467 93.7885 11.9055 93.7885 11.2578C93.7885 10.7124 93.8887 10.2543 94.089 9.88352C94.2892 9.51278 94.562 9.21449 94.9071 8.98864C95.2523 8.76278 95.6444 8.59233 96.0833 8.47727C96.5265 8.36222 96.9909 8.28125 97.4767 8.23438C98.0478 8.17472 98.508 8.11932 98.8574 8.06818C99.2069 8.01278 99.4604 7.93182 99.6181 7.82528C99.7757 7.71875 99.8546 7.56108 99.8546 7.35227V7.31392C99.8546 6.90909 99.7267 6.59588 99.4711 6.37429C99.2196 6.1527 98.8617 6.0419 98.3972 6.0419C97.9071 6.0419 97.5172 6.15057 97.2275 6.3679C96.9377 6.58097 96.7459 6.84943 96.6522 7.1733L94.1337 6.96875C94.2615 6.37216 94.513 5.85653 94.888 5.42188C95.263 4.98295 95.7466 4.64631 96.339 4.41193C96.9355 4.1733 97.6259 4.05398 98.41 4.05398C98.9554 4.05398 99.4775 4.1179 99.976 4.24574C100.479 4.37358 100.924 4.57173 101.312 4.8402C101.704 5.10866 102.013 5.45384 102.239 5.87571C102.465 6.29332 102.578 6.79403 102.578 7.37784V14H99.9952V12.6385H99.9185C99.7608 12.9453 99.5499 13.2159 99.2857 13.4503C99.0215 13.6804 98.704 13.8615 98.3333 13.9936C97.9625 14.1214 97.5343 14.1854 97.0485 14.1854ZM97.8283 12.3061C98.2289 12.3061 98.5826 12.2273 98.8894 12.0696C99.1962 11.9077 99.437 11.6903 99.6117 11.4176C99.7864 11.1449 99.8738 10.8359 99.8738 10.4908V9.44886C99.7885 9.50426 99.6713 9.5554 99.5222 9.60227C99.3773 9.64489 99.2132 9.68537 99.03 9.72372C98.8468 9.75781 98.6635 9.78977 98.4803 9.8196C98.2971 9.84517 98.1309 9.86861 97.9817 9.88991C97.6621 9.93679 97.383 10.0114 97.1444 10.1136C96.9057 10.2159 96.7203 10.3544 96.5882 10.5291C96.4561 10.6996 96.3901 10.9126 96.3901 11.1683C96.3901 11.5391 96.5243 11.8224 96.7928 12.0185C97.0655 12.2102 97.4107 12.3061 97.8283 12.3061ZM107.413 0.909091V14H104.69V0.909091H107.413ZM112.394 14.1854C111.768 14.1854 111.21 14.0767 110.719 13.8594C110.229 13.6378 109.842 13.3118 109.556 12.8814C109.275 12.4467 109.134 11.9055 109.134 11.2578C109.134 10.7124 109.234 10.2543 109.435 9.88352C109.635 9.51278 109.908 9.21449 110.253 8.98864C110.598 8.76278 110.99 8.59233 111.429 8.47727C111.872 8.36222 112.337 8.28125 112.822 8.23438C113.393 8.17472 113.854 8.11932 114.203 8.06818C114.553 8.01278 114.806 7.93182 114.964 7.82528C115.121 7.71875 115.2 7.56108 115.2 7.35227V7.31392C115.2 6.90909 115.072 6.59588 114.817 6.37429C114.565 6.1527 114.207 6.0419 113.743 6.0419C113.253 6.0419 112.863 6.15057 112.573 6.3679C112.283 6.58097 112.092 6.84943 111.998 7.1733L109.479 6.96875C109.607 6.37216 109.859 5.85653 110.234 5.42188C110.609 4.98295 111.092 4.64631 111.685 4.41193C112.281 4.1733 112.972 4.05398 113.756 4.05398C114.301 4.05398 114.823 4.1179 115.322 4.24574C115.825 4.37358 116.27 4.57173 116.658 4.8402C117.05 5.10866 117.359 5.45384 117.585 5.87571C117.81 6.29332 117.923 6.79403 117.923 7.37784V14H115.341V12.6385H115.264C115.107 12.9453 114.896 13.2159 114.631 13.4503C114.367 13.6804 114.05 13.8615 113.679 13.9936C113.308 14.1214 112.88 14.1854 112.394 14.1854ZM113.174 12.3061C113.575 12.3061 113.928 12.2273 114.235 12.0696C114.542 11.9077 114.783 11.6903 114.957 11.4176C115.132 11.1449 115.219 10.8359 115.219 10.4908V9.44886C115.134 9.50426 115.017 9.5554 114.868 9.60227C114.723 9.64489 114.559 9.68537 114.376 9.72372C114.192 9.75781 114.009 9.78977 113.826 9.8196C113.643 9.84517 113.477 9.86861 113.327 9.88991C113.008 9.93679 112.729 10.0114 112.49 10.1136C112.251 10.2159 112.066 10.3544 111.934 10.5291C111.802 10.6996 111.736 10.9126 111.736 11.1683C111.736 11.5391 111.87 11.8224 112.138 12.0185C112.411 12.2102 112.756 12.3061 113.174 12.3061Z" fill="black"/>
<path d="M60.2047 14H57.2388L61.758 0.909091H65.3248L69.8375 14H66.8716L63.5925 3.90057H63.4902L60.2047 14ZM60.0194 8.8544H67.025V11.0149H60.0194V8.8544Z" fill="#3CABE9"/>
</svg>
