<svg width="24" height="24" viewBox="0 0 24 24" fill="none" xmlns="http://www.w3.org/2000/svg">
<path d="M18.3603 6.79153L9.54285 15.7796L5.64348 11.8059C5.51457 11.6779 5.34044 11.6059 5.1588 11.6053C4.97716 11.6048 4.80261 11.6758 4.67293 11.803C4.54325 11.9302 4.46888 12.1033 4.46591 12.2849C4.46294 12.4666 4.53161 12.642 4.65706 12.7734L9.05421 17.2565C9.12569 17.3293 9.21245 17.3855 9.30824 17.4208C9.40402 17.4561 9.50645 17.4697 9.60814 17.4607C9.70983 17.4517 9.80825 17.4202 9.89631 17.3686C9.98437 17.3169 10.0599 17.2464 10.1174 17.162C10.1259 17.1547 10.1345 17.1474 10.1424 17.1395L19.3424 7.75662C19.4531 7.62333 19.5096 7.45335 19.5008 7.28037C19.492 7.10739 19.4185 6.94401 19.295 6.82262C19.1714 6.70122 19.0068 6.63065 18.8337 6.62489C18.6606 6.61914 18.4916 6.67861 18.3603 6.79153Z" fill="#0097EC"/>
<path d="M19.442 0H4.5586C3.34998 0.00129023 2.19123 0.481985 1.33661 1.33661C0.481985 2.19123 0.00129023 3.34998 0 4.5586V19.442C0.00145147 20.6505 0.482217 21.8091 1.33682 22.6636C2.19143 23.5181 3.35009 23.9987 4.5586 24H19.442C20.6504 23.9985 21.8089 23.5179 22.6634 22.6634C23.5179 21.8089 23.9985 20.6504 24 19.442V4.5586C23.9987 3.35009 23.5181 2.19143 22.6636 1.33682C21.8091 0.482217 20.6505 0.00145147 19.442 0ZM22.6182 19.442C22.6174 20.2841 22.2825 21.0915 21.687 21.687C21.0915 22.2825 20.2841 22.6174 19.442 22.6182H4.5586C3.71643 22.6174 2.90896 22.2825 2.3134 21.687C1.71783 21.0916 1.38281 20.2842 1.38184 19.442V4.5586C1.38281 3.71637 1.71781 2.90891 2.31336 2.31336C2.90891 1.71781 3.71637 1.38281 4.5586 1.38184H19.442C20.2842 1.38281 21.0916 1.71783 21.687 2.3134C22.2825 2.90896 22.6174 3.71643 22.6182 4.5586V19.442Z" fill="#0097EC"/>
</svg>
